<?xml version="1.0" encoding="iso-8859-1"?>
<!-- Generator: Adobe Illustrator 19.0.0, SVG Export Plug-In . SVG Version: 6.00 Build 0)  -->
<svg version="1.1" id="Capa_1" xmlns="http://www.w3.org/2000/svg" xmlns:xlink="http://www.w3.org/1999/xlink" x="0px" y="0px"
	 viewBox="0 0 480.017 480.017" style="enable-background:new 0 0 480.017 480.017;" xml:space="preserve">
<linearGradient id="SVGID_1_" gradientUnits="userSpaceOnUse" x1="-26.9017" y1="556.8143" x2="-26.9017" y2="624.2873" gradientTransform="matrix(8 0 0 -8 455.2221 4941.1104)">
	<stop  offset="0" style="stop-color:#006DF0"/>
	<stop  offset="1" style="stop-color:#00E7F0"/>
</linearGradient>
<path style="fill:url(#SVGID_1_);" d="M477.568,226.252l-232-224c-3.101-2.997-8.019-2.997-11.12,0l-232,224
	c-3.181,3.066-3.274,8.131-0.208,11.312c1.5,1.557,3.567,2.44,5.728,2.448h48v232c0,4.418,3.582,8,8,8h128c4.418,0,8-3.582,8-8v-136
	h80v136c0,4.418,3.582,8,8,8h128c4.418,0,8-3.582,8-8v-232h48c4.418,0.027,8.022-3.533,8.048-7.951
	C480.03,229.871,479.145,227.772,477.568,226.252z M407.968,464.012h-112v-136c0-4.418-3.582-8-8-8h-96c-4.418,0-8,3.582-8,8v136
	h-112v-224h336V464.012z M27.776,224.012l212.192-204.88l212.192,204.88H27.776z"/>
<g>
</g>
<g>
</g>
<g>
</g>
<g>
</g>
<g>
</g>
<g>
</g>
<g>
</g>
<g>
</g>
<g>
</g>
<g>
</g>
<g>
</g>
<g>
</g>
<g>
</g>
<g>
</g>
<g>
</g>
</svg>
