<svg id="Layer_1_1_" enable-background="new 0 0 64 64" height="512" viewBox="0 0 64 64" width="512" xmlns="http://www.w3.org/2000/svg"><circle cx="32" cy="32" fill="#4481c7" r="29"/><ellipse cx="32" cy="32" fill="#57a5ff" rx="14" ry="29"/><g fill="#ffe5cf"><circle cx="54" cy="36" r="6"/><circle cx="11" cy="29" r="6"/><circle cx="32" cy="49" r="6"/></g><path d="m54 42c-3.866 0-7 1.134-7 5v1h7 7v-1c0-3.866-3.134-5-7-5z" fill="#ffd45a"/><path d="m54 30h-8c0 3.314 2.686 6 6 6h8c0-3.314-2.686-6-6-6z" fill="#17120a"/><path d="m11 35c-3.866 0-7 1.134-7 5v1h7 7v-1c0-3.866-3.134-5-7-5z" fill="#2a3b85"/><path d="m11 23h-8c0 3.314 2.686 6 6 6h8c0-3.314-2.686-6-6-6z" fill="#633f0e"/><path d="m32 55c-3.866 0-7 1.134-7 5v1h7 7v-1c0-3.866-3.134-5-7-5z" fill="#2e872b"/><path d="m32 43h-8c0 3.314 2.686 6 6 6h8c0-3.314-2.686-6-6-6z" fill="#ffd45a"/><path d="m46 33h-13v-28h-2v28h-13v2h13v7h2v-7h13z" fill="#4481c7"/><circle cx="39" cy="7" fill="#2a3b85" r="4"/><path d="m44.518 19h1.482v-1c0-3.866-3.134-7-7-7s-7 3.134-7 7v1z" fill="#2a3b85"/></svg>