<svg id="Capa_1" enable-background="new 0 0 512 512" height="512" viewBox="0 0 512 512" width="512" xmlns="http://www.w3.org/2000/svg"><g><path d="m256 400.148c-4.268 0-7.726-3.459-7.726-7.726v-145.759c0-4.267 3.459-7.726 7.726-7.726s7.726 3.459 7.726 7.726v145.759c0 4.267-3.458 7.726-7.726 7.726z" fill="#365e7d"/><path d="m442.821 400.148c-4.268 0-7.726-3.459-7.726-7.726v-62.437c0-8.109-6.598-14.706-14.706-14.706h-328.777c-8.109 0-14.706 6.597-14.706 14.706v61.87c0 4.267-3.459 7.726-7.726 7.726-4.268 0-7.726-3.459-7.726-7.726v-61.87c0-16.63 13.529-30.159 30.159-30.159h328.777c16.63 0 30.159 13.529 30.159 30.159v62.437c-.002 4.267-3.46 7.726-7.728 7.726z" fill="#365e7d"/><g><circle cx="69.179" cy="442.696" fill="#95d6a4" r="69.179"/><path d="m76.994 511.442c-2.561.291-5.172.436-7.812.436-38.209 0-69.182-30.973-69.182-69.182 0-38.203 30.973-69.177 69.182-69.177 2.639 0 5.251.145 7.812.436-34.53 3.881-61.37 33.176-61.37 68.74 0 35.571 26.84 64.866 61.37 68.747z" fill="#78c2a4"/><path d="m48.895 483.197-21.629-36.182c-2.084-3.486-.947-8.002 2.539-10.086l10.911-6.522c3.486-2.084 8.002-.947 10.087 2.539l10.975 18.36 22.544-45.479c1.804-3.639 6.217-5.127 9.856-3.323l11.389 5.646c3.639 1.804 5.127 6.217 3.323 9.856l-31.765 64.082c-1.195 2.411-3.612 3.977-6.301 4.083l-15.329.603c-2.688.104-5.22-1.268-6.6-3.577z" fill="#f9f6f9"/></g><g><circle cx="442.821" cy="442.696" fill="#95d6a4" r="69.179"/><path d="m450.636 511.442c-2.561.291-5.172.436-7.812.436-38.209 0-69.182-30.973-69.182-69.182 0-38.203 30.973-69.177 69.182-69.177 2.639 0 5.251.145 7.812.436-34.53 3.881-61.37 33.176-61.37 68.74 0 35.571 26.841 64.866 61.37 68.747z" fill="#78c2a4"/><path d="m422.537 483.197-21.629-36.182c-2.084-3.486-.947-8.002 2.539-10.086l10.911-6.522c3.486-2.084 8.002-.947 10.087 2.539l10.975 18.36 22.544-45.479c1.804-3.639 6.217-5.127 9.856-3.323l11.389 5.646c3.639 1.804 5.127 6.217 3.323 9.856l-31.765 64.082c-1.195 2.411-3.612 3.977-6.301 4.083l-15.329.603c-2.687.104-5.219-1.268-6.6-3.577z" fill="#f9f6f9"/></g><g><circle cx="256.001" cy="442.696" fill="#95d6a4" r="69.179"/><path d="m263.816 511.442c-2.561.291-5.172.436-7.812.436-38.209 0-69.182-30.973-69.182-69.182 0-38.203 30.973-69.177 69.182-69.177 2.639 0 5.251.145 7.812.436-34.53 3.881-61.37 33.176-61.37 68.74-.001 35.571 26.84 64.866 61.37 68.747z" fill="#78c2a4"/><path d="m235.716 483.197-21.629-36.182c-2.084-3.486-.947-8.002 2.539-10.086l10.911-6.522c3.486-2.084 8.002-.947 10.087 2.539l10.975 18.36 22.544-45.479c1.804-3.639 6.217-5.127 9.856-3.323l11.389 5.646c3.639 1.804 5.127 6.217 3.323 9.856l-31.765 64.082c-1.195 2.411-3.612 3.977-6.301 4.083l-15.329.603c-2.687.104-5.219-1.268-6.6-3.577z" fill="#f9f6f9"/></g><g><circle cx="256" cy="134.168" fill="#d3effb" r="126.347"/><path d="m278.076 258.685c-6.996 1.213-14.196 1.835-21.536 1.835-69.78 0-126.351-56.571-126.351-126.351s56.571-126.352 126.351-126.352c7.34 0 14.54.622 21.536 1.835-59.511 10.215-104.804 62.076-104.804 124.516s45.293 114.301 104.804 124.517z" fill="#9dc6fb"/><path d="m255.999 150.264h-58.701c-8.889 0-16.096-7.206-16.096-16.096s7.206-16.096 16.096-16.096h58.701c8.889 0 0 7.206 0 16.096s0 10.79 0 16.096z" fill="#365e7d"/><path d="m255.999 150.264c-8.889 0-16.096-7.206-16.096-16.096v-41.099c0-8.889 7.206-16.096 16.096-16.096 8.889 0 16.096 7.206 16.096 16.096v41.099c0 8.89-7.206 16.096-16.096 16.096z" fill="#2b4d66"/><g fill="#365e7d"><g><path d="m256 44.974c-4.253 0-7.699-3.447-7.699-7.699v-25.471c0-4.252 3.447-7.699 7.699-7.699s7.699 3.447 7.699 7.699v25.471c0 4.252-3.446 7.699-7.699 7.699z"/><path d="m256 264.232c-4.253 0-7.699-3.447-7.699-7.699v-25.471c0-4.252 3.447-7.699 7.699-7.699s7.699 3.447 7.699 7.699v25.471c0 4.252-3.446 7.699-7.699 7.699z"/></g><g><path d="m378.363 141.868h-25.471c-4.253 0-7.699-3.447-7.699-7.699s3.447-7.699 7.699-7.699h25.471c4.253 0 7.699 3.447 7.699 7.699.001 4.252-3.446 7.699-7.699 7.699z"/><path d="m159.106 141.868h-25.471c-4.252 0-7.699-3.447-7.699-7.699s3.447-7.699 7.699-7.699h25.471c4.253 0 7.699 3.447 7.699 7.699.001 4.252-3.446 7.699-7.699 7.699z"/></g><g><path d="m348.957 88.204c-2.661 0-5.249-1.381-6.675-3.851-2.126-3.682-.864-8.391 2.818-10.517l13.021-7.517c3.68-2.125 8.392-.864 10.517 2.819 2.126 3.682.864 8.391-2.818 10.517l-13.021 7.517c-1.212.699-2.536 1.032-3.842 1.032z"/><path d="m150.037 203.051c-2.661 0-5.248-1.381-6.675-3.851-2.126-3.682-.864-8.391 2.818-10.517l13.02-7.517c3.681-2.126 8.39-.865 10.517 2.818 2.126 3.682.864 8.391-2.818 10.517l-13.02 7.517c-1.212.7-2.536 1.033-3.842 1.033z"/></g><g><path d="m309.657 48.919c-1.306 0-2.631-.333-3.843-1.033-3.682-2.126-4.944-6.835-2.818-10.518l7.518-13.02c2.126-3.683 6.835-4.944 10.517-2.818s4.944 6.835 2.818 10.518l-7.518 13.02c-1.426 2.47-4.013 3.851-6.674 3.851z"/><path d="m194.811 247.839c-1.306 0-2.63-.333-3.843-1.033-3.682-2.126-4.944-6.835-2.818-10.517l7.517-13.02c2.125-3.683 6.833-4.945 10.517-2.818 3.682 2.126 4.944 6.835 2.818 10.517l-7.517 13.02c-1.425 2.47-4.014 3.851-6.674 3.851z"/></g><g><path d="m202.342 48.919c-2.661 0-5.249-1.381-6.675-3.851l-7.517-13.02c-2.126-3.682-.864-8.391 2.818-10.517 3.681-2.125 8.392-.864 10.517 2.819l7.517 13.02c2.126 3.682.864 8.391-2.818 10.517-1.212.699-2.536 1.032-3.842 1.032z"/><path d="m317.189 247.839c-2.661 0-5.248-1.381-6.675-3.851l-7.518-13.02c-2.126-3.682-.865-8.391 2.818-10.518 3.681-2.126 8.39-.865 10.517 2.818l7.518 13.02c2.126 3.682.865 8.391-2.818 10.518-1.211.7-2.536 1.033-3.842 1.033z"/></g><g><path d="m163.042 88.204c-1.306 0-2.631-.333-3.843-1.033l-13.02-7.517c-3.682-2.126-4.944-6.835-2.818-10.517 2.125-3.683 6.836-4.945 10.517-2.818l13.02 7.517c3.682 2.126 4.944 6.835 2.818 10.517-1.425 2.47-4.013 3.851-6.674 3.851z"/><path d="m361.963 203.051c-1.306 0-2.63-.333-3.843-1.033l-13.021-7.517c-3.682-2.126-4.944-6.835-2.818-10.517 2.125-3.683 6.833-4.945 10.517-2.819l13.021 7.517c3.682 2.126 4.944 6.835 2.818 10.517-1.425 2.471-4.013 3.852-6.674 3.852z"/></g></g><path d="m256 268.215c-73.914 0-134.047-60.133-134.047-134.047 0-73.913 60.133-134.046 134.047-134.046s134.047 60.133 134.047 134.046c0 73.914-60.133 134.047-134.047 134.047zm0-252.694c-65.423 0-118.648 53.225-118.648 118.648s53.225 118.648 118.648 118.648 118.648-53.225 118.648-118.648-53.225-118.648-118.648-118.648z" fill="#698ed5"/></g></g></svg>