<?xml version="1.0" encoding="iso-8859-1"?>
<!-- Generator: Adobe Illustrator 19.0.0, SVG Export Plug-In . SVG Version: 6.00 Build 0)  -->
<svg version="1.1" id="Capa_1" xmlns="http://www.w3.org/2000/svg" xmlns:xlink="http://www.w3.org/1999/xlink" x="0px" y="0px"
	 viewBox="0 0 512.12 512.12" style="enable-background:new 0 0 512.12 512.12;" xml:space="preserve">
<g transform="translate(0 -1)">
	<g transform="translate(1 2)">
		<path style="fill:#A4C2F7;" d="M493.311,410.317l-132.096,84.651c-7.686,4.866-16.588,7.469-25.685,7.509H150.186
			c-45.056,0-57.259-23.125-57.259-23.125v-2.475h-25.6v-102.4h25.6v0.597c14.933-22.784,44.459-30.635,63.061-33.28h0.085
			c5.451-0.85,10.953-1.335,16.469-1.451h4.352c14.702,0.041,28.924,5.234,40.192,14.677c11.194,9.534,25.403,14.795,40.107,14.848
			h36.864c12.569,0.069,24.134,6.878,30.293,17.835l0.597,1.024c4.528,7.982,4.847,17.679,0.853,25.941
			c-1.104,2.231-2.511,4.299-4.181,6.144h16.128c3.02,0.032,6.022-0.458,8.875-1.451l116.224-40.789l14.165-5.035
			c2.035-0.685,4.168-1.031,6.315-1.024c6.128,0.067,11.847,3.085,15.36,8.107c3.257,4.641,4.521,10.392,3.511,15.97
			C501.188,402.17,497.988,407.112,493.311,410.317z"/>
		<path style="fill:#D4E1F4;" d="M459.178,410.317l-132.096,84.651c-7.686,4.866-16.588,7.469-25.685,7.509H150.186
			c-45.056,0-57.259-23.125-57.259-23.125v-2.475h-25.6v-102.4h25.6v0.597c14.933-22.784,44.459-30.635,63.061-33.28h0.085
			c9.892,2.187,19.112,6.724,26.88,13.227c11.194,9.534,25.403,14.795,40.107,14.848h36.864
			c12.569,0.069,24.134,6.878,30.293,17.835l0.597,1.024c5.885,10.302,4.546,23.21-3.328,32.085h16.128
			c3.02,0.032,6.022-0.458,8.875-1.451l13.312-4.693c-1.104,2.231-2.511,4.299-4.181,6.144h16.128
			c3.02,0.032,6.022-0.458,8.875-1.451l116.224-40.789c0.635,0.625,1.206,1.311,1.707,2.048c3.257,4.641,4.521,10.392,3.511,15.97
			C467.055,402.17,463.855,407.112,459.178,410.317z"/>
		<g>
			<path style="fill:#E3E7F2;" d="M16.127,357.41h68.267c4.713,0,8.533,3.821,8.533,8.533V485.41c0,4.713-3.821,8.533-8.533,8.533
				H16.127c-4.713,0-8.533-3.82-8.533-8.533V365.943C7.594,361.231,11.414,357.41,16.127,357.41z"/>
			<path style="fill:#E3E7F2;" d="M501.588,186.999c1.251-11.515,1.251-23.131,0-34.645l-45.824-13.056
				c-2.69-10.424-6.827-20.419-12.288-29.696l23.125-41.643c-7.168-9.102-15.389-17.323-24.491-24.491l-41.643,23.125
				c-9.277-5.462-19.272-9.598-29.696-12.288L357.716,8.482c-11.515-1.251-23.131-1.251-34.646,0l-13.056,45.824
				c-10.423,2.69-20.419,6.826-29.696,12.288l-41.643-23.125c-9.102,7.168-17.323,15.389-24.491,24.491l23.125,41.643
				c-5.461,9.277-9.598,19.272-12.288,29.696l-45.824,13.056c-1.251,11.515-1.251,23.131,0,34.645l45.824,13.056
				c2.69,10.424,6.826,20.419,12.288,29.696l-23.125,41.643c7.228,9.049,15.442,17.263,24.491,24.491l41.643-23.125
				c9.277,5.462,19.272,9.598,29.696,12.288l13.056,45.824c11.515,1.251,23.131,1.251,34.646,0l13.056-45.824
				c10.424-2.69,20.419-6.826,29.696-12.288l41.643,23.125c9.049-7.228,17.263-15.442,24.491-24.491l-23.125-41.643
				c5.462-9.277,9.598-19.272,12.288-29.696L501.588,186.999z M340.394,246.477c-42.415,0-76.8-34.385-76.8-76.8
				s34.385-76.8,76.8-76.8s76.8,34.385,76.8,76.8C417.19,212.091,382.808,246.473,340.394,246.477z"/>
		</g>
		<path style="fill:#A4C2F7;" d="M455.764,200.055c-2.69,10.424-6.826,20.419-12.288,29.696l23.125,41.643
			c-7.228,9.049-15.442,17.263-24.491,24.491l-15.701-8.704c1.024-0.853,2.048-1.877,3.072-2.901
			c4.085-4.069,7.932-8.372,11.52-12.885l-23.125-41.643c5.462-9.277,9.598-19.272,12.288-29.696l45.824-13.056
			c1.251-11.515,1.251-23.131,0-34.645l-45.824-13.056c-2.69-10.424-6.827-20.419-12.288-29.696l23.125-41.643
			c-3.61-4.523-7.455-8.852-11.52-12.971c-1.024-0.939-1.963-1.963-2.987-2.816l15.616-8.704
			c9.102,7.168,17.323,15.389,24.491,24.491l-23.125,41.643c5.461,9.277,9.598,19.272,12.288,29.696l45.824,13.056
			c1.251,11.515,1.251,23.131,0,34.645L455.764,200.055z"/>
	</g>
	<g transform="translate(1 6)">
		<path style="fill:#FFFFFF;" d="M477.012,369.538l-14.165,5.035L349.023,414.52c-0.557,0.797-1.159,1.563-1.802,2.293h16.128
			c3.02,0.032,6.022-0.458,8.875-1.451l116.224-40.789l6.022-2.14c-3.185-2.49-7.099-3.866-11.142-3.919
			C481.18,368.507,479.047,368.853,477.012,369.538z"/>
		<path style="fill:#FFFFFF;" d="M16.127,489.943h25.6c-4.713,0-8.533-3.82-8.533-8.533V361.943c0-4.713,3.821-8.533,8.533-8.533
			h-25.6c-4.713,0-8.533,3.821-8.533,8.533V481.41C7.594,486.123,11.414,489.943,16.127,489.943z"/>
		<path style="fill:#FFFFFF;" d="M179.199,148.354c-1.251,11.515-1.251,23.131,0,34.645l45.824,13.056
			c2.69,10.424,6.826,20.419,12.288,29.696l-23.125,41.643c7.228,9.049,15.442,17.263,24.491,24.491l15.684-8.71
			c-1.017-0.966-2.05-1.891-3.055-2.896c-4.085-4.069-7.932-8.372-11.52-12.885l23.125-41.643
			c-5.462-9.277-9.598-19.272-12.288-29.696l-45.824-13.056c-1.251-11.515-1.251-23.131,0-34.645l45.824-13.056
			c2.69-10.424,6.827-20.419,12.288-29.696l-23.125-41.643c3.61-4.523,7.455-8.852,11.52-12.971
			c1.006-0.986,2.104-1.817,3.122-2.773l-15.752-8.747c-9.102,7.168-17.323,15.389-24.491,24.491l23.125,41.643
			c-5.461,9.277-9.598,19.272-12.288,29.696L179.199,148.354z"/>
	</g>
	<g>
		<path style="fill:#FFFFFF;" d="M0.06,487.41V368.02c0.005-1.856,0.301-3.701,0.878-5.465c2.149-6.413,7.872-10.959,14.605-11.601
			c1.016-0.076,1.908-0.085,2.2-0.077h67.651v17.067H17.743c-0.647-0.01-0.694,0.024-0.616,0.004l0.002,0.006l-0.002-0.009
			c0,0,0.003,0.01-0.058-0.022c0,0,0.11-0.064,0.057,0.097v119.39H0.06z"/>
		<g>
			<polygon style="fill:#428DFF;" points="17.127,367.952 17.127,367.943 17.127,367.943 			"/>
			<path style="fill:#428DFF;" d="M5.352,426.998c0.484,0.246,1.002,0.417,1.537,0.508c0.563,0.096,1.133,0.153,1.704,0.171
				c2.259-0.031,4.423-0.915,6.059-2.475c3.221-3.397,3.221-8.72,0-12.117c-0.815-0.771-1.77-1.379-2.813-1.792
				c-1.027-0.438-2.13-0.67-3.246-0.683c-2.259,0.034-4.422,0.918-6.059,2.475c-3.3,3.365-3.3,8.752,0,12.117l1.279,1.025
				C4.29,426.551,4.808,426.81,5.352,426.998z"/>
			<path style="fill:#428DFF;" d="M17.127,504.477h68.267c5.094-0.019,9.909-2.325,13.117-6.282
				c15.458,10.561,33.952,15.765,52.649,14.816h185.342c10.744-0.038,21.257-3.116,30.325-8.879l132.117-84.671
				c6.577-4.331,11.112-11.148,12.567-18.888c1.538-7.991-0.24-16.263-4.925-22.917c-7.079-9.923-19.821-14.038-31.367-10.129
				l-130.5,45.787c-1.909,0.668-3.919,1.001-5.942,0.983h-2.033c2.609-9.284,1.412-19.225-3.325-27.625l-0.667-1.208
				c-7.702-13.573-22.061-22.006-37.667-22.121h-36.866c-12.711-0.089-24.988-4.635-34.692-12.846
				c-12.794-10.723-28.94-16.627-45.633-16.688h-4.325c-2.148,0-45.896,0.399-74.129,24.474c-3.176-4.632-8.43-7.402-14.046-7.408
				H17.743c-0.293-0.008-1.184,0.001-2.2,0.077c-6.74,0.625-12.471,5.178-14.605,11.601c-0.577,1.765-0.873,3.609-0.878,5.466v16.99
				c0,4.713,3.821,8.533,8.533,8.533s8.533-3.821,8.533-8.533v-16.99c0.054-0.161-0.057-0.097-0.057-0.097
				c0.06,0.032,0.058,0.022,0.058,0.022l0.001,0.002c-0.074,0.019-0.024-0.014,0.614-0.004h67.651V487.41l-68.267,0.012v-34.146
				c0-4.713-3.821-8.533-8.533-8.533s-8.533,3.821-8.533,8.533v34.133C0.071,496.831,7.706,504.466,17.127,504.477z
				 M173.569,350.877h4.325c12.695,0.058,24.968,4.559,34.692,12.721c12.774,10.774,28.923,16.723,45.633,16.813h36.867
				c9.449,0.018,18.153,5.133,22.767,13.379l0.667,1.208c3.372,6.034,3.208,13.422-0.429,19.3h-42.004
				c-14.349,0.041-28.337,4.505-40.058,12.783l-5.117,3.592c-2.495,1.751-3.866,4.699-3.598,7.735
				c0.269,3.036,2.136,5.698,4.9,6.983c2.764,1.285,6.003,0.999,8.498-0.752l5.1-3.575c8.855-6.268,19.426-9.655,30.275-9.7h62.692
				c3.985,0.019,7.944-0.652,11.7-1.983l130.309-45.72c4.403-1.493,9.263,0.108,11.917,3.925c1.981,2.842,2.721,6.368,2.05,9.767
				c-0.55,3.169-2.375,5.973-5.05,7.758l-132.025,84.612c-6.331,4.029-13.671,6.185-21.175,6.221H151.16
				c-32.625,0-45.325-12.829-48.7-17.188v-99.004C123.302,351.331,173.069,350.877,173.569,350.877z"/>
			<path style="fill:#428DFF;" d="M42.727,461.81c1.115-0.014,2.216-0.246,3.242-0.683c1.033-0.435,1.985-1.041,2.817-1.791
				c1.557-1.637,2.44-3.8,2.475-6.059c0.028-1.12-0.206-2.232-0.683-3.246c-0.432-1.033-1.038-1.984-1.791-2.813
				c-0.831-0.754-1.783-1.361-2.817-1.796c-2.069-0.894-4.415-0.894-6.483,0c-1.045,0.413-2.002,1.023-2.817,1.796
				c-0.753,0.829-1.359,1.78-1.792,2.813c-0.911,2.067-0.911,4.421,0,6.487c0.413,1.044,1.021,2,1.792,2.817
				C38.305,460.893,40.468,461.777,42.727,461.81z"/>
			<path style="fill:#428DFF;" d="M504.927,146.148l-41.216-11.783c-2.396-7.893-5.555-15.533-9.433-22.812l20.808-37.467
				c1.694-3.046,1.364-6.816-0.833-9.521c-7.626-9.489-16.26-18.121-25.75-25.746c-2.704-2.197-6.472-2.527-9.517-0.833
				l-37.467,20.804c-7.279-3.876-14.918-7.035-22.808-9.433L366.927,8.135c-0.96-3.35-3.859-5.781-7.325-6.142
				c-12.103-1.325-24.314-1.325-36.417,0c-3.466,0.361-6.365,2.792-7.325,6.142l-11.783,41.221
				c-7.891,2.398-15.529,5.557-22.809,9.433l-37.467-20.804c-3.044-1.694-6.813-1.364-9.517,0.833
				c-9.485,7.631-18.118,16.262-25.75,25.746c-2.197,2.705-2.527,6.475-0.833,9.521l20.808,37.467
				c-3.878,7.28-7.038,14.92-9.433,22.812l-41.217,11.783c-3.349,0.954-5.78,3.849-6.142,7.312c-1.322,12.108-1.322,24.325,0,36.433
				c0.361,3.463,2.793,6.358,6.142,7.312l41.217,11.783c2.396,7.893,5.555,15.533,9.433,22.813l-20.808,37.467
				c-1.694,3.046-1.364,6.816,0.833,9.521c7.626,9.489,16.26,18.121,25.75,25.746c2.705,2.193,6.472,2.523,9.517,0.833
				l37.467-20.804c7.279,3.877,14.918,7.037,22.809,9.433l11.783,41.221c0.96,3.35,3.859,5.781,7.325,6.142
				c12.103,1.311,24.313,1.311,36.417,0c3.466-0.361,6.365-2.792,7.325-6.142l11.783-41.221c7.891-2.396,15.53-5.556,22.808-9.433
				l37.467,20.804c3.047,1.683,6.809,1.353,9.517-0.833c9.485-7.631,18.118-16.262,25.75-25.746
				c2.197-2.705,2.527-6.475,0.833-9.521l-20.808-37.467c3.878-7.28,7.038-14.92,9.433-22.813l41.217-11.783
				c3.349-0.954,5.78-3.849,6.142-7.312c1.322-12.108,1.322-24.325,0-36.433C510.708,149.997,508.276,147.102,504.927,146.148z
				 M494.602,182.41l-40.141,11.475c-2.896,0.827-5.142,3.12-5.908,6.033c-2.537,9.665-6.375,18.94-11.408,27.571
				c-1.524,2.6-1.559,5.813-0.092,8.446l20.267,36.492c-2.408,2.775-4.825,5.375-7.308,7.858c-2.492,2.492-5.092,4.908-7.867,7.312
				l-36.492-20.258c-2.633-1.474-5.85-1.439-8.45,0.092c-8.626,5.034-17.897,8.869-27.558,11.4c-2.914,0.767-5.21,3.012-6.042,5.908
				l-11.475,40.15c-7.146,0.517-14.32,0.517-21.467,0l-11.475-40.15c-0.832-2.897-3.127-5.141-6.042-5.908
				c-9.661-2.531-18.932-6.366-27.558-11.4c-2.6-1.53-5.817-1.565-8.45-0.092l-36.492,20.258c-2.775-2.404-5.375-4.821-7.867-7.304
				c-2.483-2.488-4.9-5.088-7.308-7.867l20.267-36.492c1.467-2.633,1.433-5.845-0.092-8.446
				c-5.034-8.631-8.872-17.907-11.408-27.571c-0.766-2.913-3.012-5.206-5.908-6.033l-40.142-11.475
				c-0.267-3.666-0.392-7.212-0.392-10.733c0-3.521,0.125-7.067,0.392-10.733l40.142-11.475c2.896-0.827,5.142-3.12,5.908-6.033
				c2.537-9.665,6.375-18.94,11.408-27.571c1.524-2.6,1.559-5.813,0.092-8.446l-20.267-36.492c2.408-2.775,4.825-5.375,7.308-7.858
				c2.483-2.487,5.092-4.908,7.867-7.317l36.492,20.262c2.636,1.461,5.847,1.427,8.451-0.092c8.626-5.034,17.897-8.869,27.558-11.4
				c2.914-0.767,5.21-3.012,6.042-5.908l11.475-40.15c7.146-0.517,14.32-0.517,21.467,0l11.475,40.15
				c0.832,2.897,3.127,5.141,6.042,5.908c9.661,2.531,18.932,6.366,27.558,11.4c2.604,1.518,5.814,1.553,8.45,0.092l36.492-20.263
				c2.775,2.408,5.375,4.829,7.867,7.308c2.483,2.488,4.9,5.088,7.308,7.867l-20.266,36.492c-1.467,2.633-1.433,5.845,0.092,8.446
				c5.034,8.631,8.871,17.907,11.408,27.571c0.766,2.913,3.012,5.206,5.908,6.033l40.142,11.475
				c0.266,3.667,0.391,7.212,0.391,10.733C494.994,175.198,494.869,178.743,494.602,182.41L494.602,182.41z"/>
			<path style="fill:#428DFF;" d="M341.394,86.343c-47.128,0-85.333,38.205-85.333,85.333s38.205,85.333,85.333,85.333
				s85.333-38.205,85.333-85.333C426.673,124.571,388.5,86.397,341.394,86.343z M341.394,239.943
				c-37.703,0-68.267-30.564-68.267-68.267s30.564-68.267,68.267-68.267s68.267,30.564,68.267,68.267
				C409.617,209.362,379.079,239.9,341.394,239.943z"/>
		</g>
	</g>
</g>
<g>
</g>
<g>
</g>
<g>
</g>
<g>
</g>
<g>
</g>
<g>
</g>
<g>
</g>
<g>
</g>
<g>
</g>
<g>
</g>
<g>
</g>
<g>
</g>
<g>
</g>
<g>
</g>
<g>
</g>
</svg>
