<svg height="512" viewBox="0 0 64 64" width="512" xmlns="http://www.w3.org/2000/svg"><g id="Calendar"><path d="m49 23h-2v1a2 2 0 0 1 -4 0v-1h-8v1a2 2 0 0 1 -4 0v-1h-2a2 2 0 0 0 -2 2v4h24v-4a2 2 0 0 0 -2-2z" fill="#9bc9ff"/><path d="m27 29v12a2 2 0 0 0 2 2h20a2 2 0 0 0 2-2v-12z" fill="#9bc9ff"/><path d="m35 57h-28a4 4 0 0 1 -4-4v4a4 4 0 0 0 4 4h28a4 4 0 0 0 4-4v-3c-.047 0-.093 0-.14 0a3.992 3.992 0 0 1 -3.86 3z" fill="#8cb5e5"/><path d="m39 10v-3a4 4 0 0 0 -4-4h-28a4 4 0 0 0 -4 4v46a4 4 0 0 0 4 4h28a3.992 3.992 0 0 0 3.86-3 21.887 21.887 0 0 1 -10.941-3h-19.919a2.006 2.006 0 0 1 -2-2v-41a2.006 2.006 0 0 1 2-2h5a2 2 0 0 1 2 2 2 2 0 0 0 2 2h8a2 2 0 0 0 2-2 2 2 0 0 1 2-2h5a2.006 2.006 0 0 1 2 2v2.209a22.161 22.161 0 0 1 3-.209z" fill="#9bc9ff"/><g fill="#1e81ce"><path d="m18 6h2v2h-2z"/><path d="m22 6h2v2h-2z"/><path d="m62 32a23.026 23.026 0 0 0 -22-22.975v-2.025a5.006 5.006 0 0 0 -5-5h-28a5.006 5.006 0 0 0 -5 5v50a5.006 5.006 0 0 0 5 5h28a5.006 5.006 0 0 0 5-5v-2.025a23.026 23.026 0 0 0 22-22.975zm-2 0a21 21 0 1 1 -21-21 21.024 21.024 0 0 1 21 21zm-25-22.645a22.982 22.982 0 0 0 -10.293 40.645h-16.707a1 1 0 0 1 -1-1v-41a1 1 0 0 1 1-1h5a1 1 0 0 1 1 1 3 3 0 0 0 3 3h8a3 3 0 0 0 3-3 1 1 0 0 1 1-1h5a1 1 0 0 1 1 1zm-31-2.355a3 3 0 0 1 3-3h28a3 3 0 0 1 3 3v2.025c-.335.015-.668.039-1 .067v-1.092a3 3 0 0 0 -3-3h-5a3 3 0 0 0 -3 3 1 1 0 0 1 -1 1h-8a1 1 0 0 1 -1-1 3 3 0 0 0 -3-3h-5a3 3 0 0 0 -3 3v41a3 3 0 0 0 3 3h19.664a22.833 22.833 0 0 0 9.624 2.93 2.987 2.987 0 0 1 -2.288 1.07h-28a3 3 0 0 1 -3-3zm31 53h-28a3 3 0 0 1 -3-3v-.026a4.948 4.948 0 0 0 3 1.026h28a4.985 4.985 0 0 0 3-1 3 3 0 0 1 -3 3z"/><path d="m38 13h2v2h-2z"/><path d="m47 15.411h2v2h-2z" transform="matrix(.5 -.866 .866 .5 9.79 49.778)"/><path d="m53.589 22h1.999v1.999h-1.999z" transform="matrix(.866 -.5 .5 .866 -4.185 30.385)"/><path d="m56 31h2v2h-2z"/><path d="m53.589 40h1.999v1.999h-1.999z" transform="matrix(.5 -.866 .866 .5 -8.217 67.765)"/><path d="m47 46.589h2v2h-2z" transform="matrix(.866 -.5 .5 .866 -17.364 30.378)"/><path d="m38 49h2v2h-2z"/><path d="m29 46.588h2v2h-2z" transform="matrix(.5 -.866 .866 .5 -26.213 49.78)"/><path d="m22.412 40h1.999v1.999h-1.999z" transform="matrix(.866 -.5 .5 .866 -17.367 17.205)"/><path d="m20 31h2v2h-2z"/><path d="m22.412 22h1.999v1.999h-1.999z" transform="matrix(.5 -.866 .866 .5 -8.214 31.77)"/><path d="m29 15.411h2v2h-2z" transform="matrix(.866 -.5 .5 .866 -4.186 17.2)"/><path d="m57 52h-2v2h-2v2h2v2h2v-2h2v-2h-2z"/><path d="m53 60h6v2h-6z"/><path d="m18 53h6v2h-6z"/><path d="m33 19a3 3 0 0 0 -3 3h-1a3 3 0 0 0 -3 3v16a3 3 0 0 0 3 3h20a3 3 0 0 0 3-3v-16a3 3 0 0 0 -3-3h-1a3 3 0 0 0 -6 0h-6a3 3 0 0 0 -3-3zm-1 3a1 1 0 0 1 2 0v2a1 1 0 0 1 -2 0zm18 19a1 1 0 0 1 -1 1h-20a1 1 0 0 1 -1-1v-11h22zm-6-19a1 1 0 0 1 2 0v2a1 1 0 0 1 -2 0zm-2 2a3 3 0 0 0 6 0h1a1 1 0 0 1 1 1v3h-22v-3a1 1 0 0 1 1-1h1a3 3 0 0 0 6 0z"/><path d="m37.447 33.9.553-.282v6.382a1 1 0 0 0 2 0v-8a1 1 0 0 0 -1.447-.895l-2 1a1 1 0 0 0 .894 1.79z"/></g></g></svg>